PathFileType	4	(X/Y/Z)	Exemple_fichier.trc																																					
DataRate	CameraRate	NumFrames	NumMarkers	Units	OrigDataRate	OrigDataStartFrame	OrigNumFrames																																	
100	100	22	13	m	100	1	1000																																	
Frame#	Time	C7			T10			CLAV			STRN			RSHO			RUPA			RELB			RFRA			RWRA			RWRB			RFIN0			RFINx			RFINy		
		X1	Y1	Z1	X2	Y2	Z2	X3	Y3	Z3	X4	Y4	Z4	X5	Y5	Z5	X6	Y6	Z6	X7	Y7	Z7	X8	Y8	Z8	X9	Y9	Z9	X10	Y10	Z10	X11	Y11	Z11	X12	Y12	Z12	X13	Y13	Z13
																																								
1	0	0.4505851	1.294439	-0.1043689	0.4479265	1.15702	-0.06452482	0.4597274	1.225115	-0.2242477	0.4549719	1.091198	-0.3247785	0.6083692	1.248205	-0.1741892	0.6703797	1.03334	-0.167257	0.6859979	0.9587205	-0.1268996	0.638403	0.9878723	-0.2857035	0.6016717	1.013859	-0.3266464	0.6109832	0.9695642	-0.3386998	0.6100483	0.9740256	-0.3865615	0.6144168	0.9783066	-0.4060554	0.6210258	1.003147	-0.3806139
2	0.01	0.45058	1.294428	-0.1043337	0.4479215	1.157015	-0.06444875	0.4597306	1.225119	-0.2242121	0.4549148	1.091176	-0.3247589	0.6083748	1.248242	-0.1741982	0.6704152	1.03336	-0.1678538	0.6860789	0.9586437	-0.1277073	0.6386071	0.9881417	-0.2864912	0.6020339	1.014192	-0.3275359	0.6111844	0.9697989	-0.3395117	0.6101678	0.973994	-0.3873289	0.6146065	0.9781125	-0.4068965	0.6212849	1.003096	-0.3816139
3	0.02	0.450576	1.294417	-0.1042944	0.447917	1.157007	-0.06437396	0.4597364	1.225122	-0.2241741	0.4548625	1.091156	-0.3247381	0.6083792	1.24828	-0.1742047	0.670447	1.033377	-0.1684744	0.6861598	0.9585619	-0.1285434	0.6388184	0.988416	-0.287309	0.6024039	1.014535	-0.3284581	0.6113858	0.9700388	-0.3403522	0.6102836	0.9739619	-0.388129	0.6147804	0.9779144	-0.4077676	0.6215443	1.003044	-0.3826528
4	0.03	0.450574	1.294406	-0.1042491	0.4479134	1.156996	-0.06430263	0.459746	1.225126	-0.2241325	0.454819	1.09114	-0.324716	0.6083818	1.248318	-0.1742066	0.670472	1.033391	-0.1691225	0.6862388	0.9584737	-0.1294113	0.6390363	0.9886914	-0.2881616	0.6027793	1.014883	-0.3294185	0.6115832	0.9702803	-0.3412249	0.610391	0.9739272	-0.3889679	0.6149251	0.9777109	-0.4086723	0.6217986	1.002992	-0.3837371
5	0.04	0.4505744	1.294395	-0.1041954	0.4479111	1.156982	-0.06423554	0.4597603	1.22513	-0.2240864	0.4547871	1.091129	-0.3246922	0.6083818	1.248357	-0.1742019	0.6704876	1.0334	-0.1698017	0.6863142	0.9583777	-0.1303159	0.639259	0.988963	-0.2890549	0.6031589	1.015234	-0.3304235	0.6117722	0.9705183	-0.3421342	0.6104858	0.9738854	-0.3898517	0.6150312	0.9774978	-0.4096155	0.6220426	1.002934	-0.3848743
6	0.05	0.4505766	1.294383	-0.1041308	0.4479107	1.156962	-0.06417166	0.4597805	1.225136	-0.2240347	0.4547684	1.091124	-0.3246664	0.6083783	1.248396	-0.1741885	0.6704916	1.033404	-0.1705145	0.6863845	0.9582726	-0.131262	0.6394842	0.9892246	-0.289994	0.6035413	1.015582	-0.331479	0.6119484	0.9707463	-0.3430843	0.6105637	0.9738291	-0.3907849	0.6150936	0.9772673	-0.4106019	0.6222716	1.002862	-0.3860701
7	0.06	0.4505795	1.294368	-0.104053	0.4479127	1.156934	-0.06410838	0.4598068	1.225145	-0.2239762	0.4547636	1.091129	-0.3246387	0.60837	1.248433	-0.1741641	0.6704824	1.033401	-0.1712615	0.6864484	0.9581577	-0.1322529	0.6397083	0.9894689	-0.2909829	0.6039249	1.01592	-0.3325894	0.6121073	0.970956	-0.3440775	0.6106207	0.9737486	-0.3917691	0.6151106	0.9770092	-0.4116347	0.6224816	1.002767	-0.3873278
8	0.07	0.4505815	1.29435	-0.1039602	0.4479171	1.156897	-0.06404255	0.4598391	1.22516	-0.2239101	0.4547724	1.091143	-0.3246093	0.6083558	1.248468	-0.1741265	0.6704585	1.03339	-0.1720412	0.6865049	0.9580328	-0.1332898	0.6399272	0.9896881	-0.2920233	0.6043073	1.016239	-0.3337568	0.6122442	0.9711377	-0.3451143	0.6106527	0.9736327	-0.3928029	0.6150829	0.9767121	-0.4127138	0.6226688	1.002638	-0.388647
9	0.08	0.4505816	1.294327	-0.1038518	0.4479237	1.156852	-0.06397197	0.4598763	1.225182	-0.2238349	0.4547942	1.091168	-0.3245791	0.6083353	1.2485	-0.1740742	0.6704196	1.033372	-0.1728515	0.6865533	0.9578983	-0.1343713	0.6401366	0.9898739	-0.293115	0.6046854	1.016532	-0.3349811	0.6123545	0.9712808	-0.346193	0.6106568	0.9734702	-0.3938816	0.6150122	0.9763643	-0.4138356	0.6228293	1.002465	-0.3900237
10	0.09	0.4505791	1.2943	-0.1037282	0.4479317	1.1568	-0.06389641	0.459916	1.225213	-0.223749	0.454828	1.091205	-0.3245487	0.6083087	1.248527	-0.1740065	0.6703666	1.033348	-0.1736891	0.6865939	0.9577547	-0.1354942	0.6403318	0.9900183	-0.2942557	0.605055	1.016789	-0.3362589	0.6124344	0.9713756	-0.3473103	0.6106309	0.973252	-0.394998	0.614901	0.9759562	-0.414993	0.6229586	1.002236	-0.3914496
11	0.1	0.4505743	1.294268	-0.1035904	0.4479398	1.156745	-0.06381712	0.4599547	1.22525	-0.2236508	0.4548724	1.091252	-0.3245191	0.6082774	1.24855	-0.1739244	0.6703019	1.033319	-0.1745503	0.6866279	0.957604	-0.1366536	0.6405082	0.9901143	-0.2954406	0.6054095	1.017002	-0.3375835	0.6124792	0.9714136	-0.3484611	0.6105729	0.9729716	-0.3961419	0.6147516	0.9754808	-0.4161751	0.6230518	1.001943	-0.3929118
12	0.11	0.4505685	1.294231	-0.1034401	0.4479463	1.156687	-0.0637353	0.459987	1.225292	-0.2235389	0.4549256	1.091311	-0.3244909	0.6082439	1.248566	-0.1738303	0.6702287	1.033286	-0.1754299	0.686658	0.9574484	-0.1378428	0.6406604	0.990157	-0.296663	0.6057394	1.017162	-0.3389453	0.6124839	0.9713893	-0.3496376	0.6104801	0.972625	-0.3973	0.6145656	0.9749351	-0.4173683	0.6231039	1.001578	-0.394394
13	0.12	0.4505641	1.29419	-0.1032795	0.447949	1.156625	-0.06365166	0.4600063	1.225334	-0.2234126	0.4549853	1.091379	-0.3244646	0.608211	1.248575	-0.1737281	0.6701503	1.033251	-0.1763216	0.6866875	0.9572907	-0.1390533	0.6407821	0.9901434	-0.2979135	0.606032	1.017261	-0.3403309	0.6124422	0.9712999	-0.3508289	0.610349	0.9722108	-0.3984564	0.6143435	0.9743184	-0.4185564	0.6231102	1.00114	-0.3958772
14	0.13	0.4505635	1.294146	-0.1031117	0.4479457	1.156559	-0.06356719	0.460008	1.225371	-0.2232723	0.4550488	1.091454	-0.3244402	0.6081814	1.248575	-0.1736219	0.6700701	1.033215	-0.1772174	0.6867199	0.9571323	-0.140275	0.6408664	0.9900732	-0.29918	0.6062736	1.01729	-0.3417239	0.6123479	0.9711454	-0.35202	0.6101753	0.9717295	-0.3995925	0.6140833	0.9736314	-0.419721	0.6230661	1.000629	-0.3973408
15	0.14	0.4505682	1.294099	-0.1029404	0.4479345	1.156489	-0.06348358	0.4599927	1.225402	-0.223121	0.4551135	1.091534	-0.3244168	0.6081574	1.248565	-0.1735152	0.6699907	1.033176	-0.1781082	0.6867579	0.9569737	-0.1414955	0.6409074	0.9899487	-0.3004467	0.6064526	1.017248	-0.3431057	0.6121953	0.9709294	-0.3531931	0.6099534	0.9711845	-0.4006888	0.6137812	0.9728774	-0.4208424	0.6229674	1.000049	-0.3987635
16	0.15	0.450579	1.29405	-0.1027698	0.4479136	1.156415	-0.0634031	0.459967	1.225426	-0.2229645	0.4551778	1.091614	-0.3243927	0.6081403	1.248544	-0.1734109	0.6699139	1.033133	-0.1789842	0.6868026	0.9568148	-0.142701	0.6409008	0.9897751	-0.3016956	0.6065619	1.017137	-0.3444563	0.6119805	0.9706587	-0.3543284	0.6096771	0.9705822	-0.4017264	0.6134318	0.9720635	-0.4219018	0.6228098	0.9994066	-0.4001255
17	0.16	0.4505955	1.293998	-0.1026044	0.447882	1.156338	-0.06332848	0.4599394	1.225444	-0.22281	0.4552407	1.091691	-0.3243662	0.6081307	1.248513	-0.173311	0.6698408	1.033084	-0.1798349	0.6868541	0.9566559	-0.1438761	0.6408443	0.9895597	-0.3029066	0.6065995	1.016965	-0.3457556	0.6117026	0.9703438	-0.355406	0.6093407	0.9699324	-0.4026892	0.6130295	0.9712011	-0.4228828	0.6225902	0.9987119	-0.4014088
18	0.17	0.4506167	1.293946	-0.1024489	0.4478394	1.156261	-0.06326319	0.4599166	1.225459	-0.2226646	0.4553008	1.09176	-0.3243366	0.6081289	1.248471	-0.1732172	0.6697715	1.033029	-0.1806496	0.6869106	0.9564985	-0.1450052	0.6407382	0.9893103	-0.3040597	0.6065667	1.016742	-0.3469838	0.6113634	0.9699972	-0.3564075	0.6089403	0.9692478	-0.4035645	0.61257	0.9703056	-0.4237727	0.622307	0.997978	-0.4025982
19	0.18	0.4506404	1.293892	-0.1023086	0.4477865	1.156187	-0.06321129	0.4599039	1.22547	-0.2225354	0.4553556	1.091817	-0.3243053	0.6081346	1.248423	-0.1731308	0.6697052	1.032968	-0.1814175	0.6869689	0.956345	-0.1460719	0.6405841	0.9890344	-0.3051361	0.6064663	1.016479	-0.3481219	0.6109677	0.9696327	-0.3573163	0.6084755	0.9685435	-0.4043428	0.6120514	0.9693949	-0.4245623	0.6219603	0.9972199	-0.4036806
20	0.19	0.4506634	1.293839	-0.1021885	0.4477241	1.156116	-0.06317664	0.4599047	1.225477	-0.2224287	0.4554034	1.091861	-0.3242751	0.6081476	1.248372	-0.1730523	0.6696406	1.032902	-0.1821281	0.6870249	0.9561985	-0.1470604	0.6403842	0.988739	-0.3061184	0.6063018	1.016184	-0.3491523	0.6105213	0.9692632	-0.3581178	0.607949	0.9678358	-0.4050175	0.6114756	0.9684886	-0.4252453	0.6215527	0.9964538	-0.4046439
21	0.2	0.4506818	1.293787	-0.1020936	0.4476536	1.156054	-0.06316249	0.459921	1.225482	-0.2223495	0.4554448	1.09189	-0.3242502	0.6081675	1.248324	-0.1729818	0.6695752	1.032834	-0.1827708	0.687073	0.9560622	-0.1479555	0.6401399	0.9884296	-0.3069913	0.6060758	1.015865	-0.3500595	0.6100307	0.9688994	-0.3587997	0.6073668	0.9671407	-0.4055834	0.6108485	0.9676065	-0.4258171	0.6210895	0.9956958	-0.4054767
22	0.21	0.4506915	1.293738	-0.102028	0.4475766	1.156003	-0.0631712	0.4599537	1.225483	-0.222301	0.4554849	1.091904	-0.3242362	0.608194	1.248284	-0.1729188	0.669506	1.032764	-0.1833357	0.6871073	0.9559387	-0.1487434	0.6398521	0.9881108	-0.3077416	0.6057908	1.015532	-0.3508307	0.6095026	0.9685492	-0.3593522	0.6067386	0.9664727	-0.4060358	0.6101797	0.9667674	-0.426274	0.6205781	0.9949616	-0.4061682
